# xmcd
#
# Track frame offsets: 
#        150
#        19039
#        35385
#        52226
#        69569
#        95598
#        119628
#        142188
#        156417
#        170130
#
# Disc length: 2537 seconds
#
# Revision: 0
# Processed by: cddbd v1.5.2PL0 Copyright (c) Steve Scherf et al.
# Submitted via: ExactAudioCopy v1.3
#
DISCID=9909e70a
DTITLE=Buddy Guy and Junior Wells - Going Back To Acoustic
DYEAR=2006
DGENRE=Country Blues, Chicago Blues, Harmonica Blues
TTITLE0=Boogie Chillun
TTITLE1=I'm In The Mood
TTITLE2=Dont Leave Me
TTITLE3=Give Me My Coat And Shoes
TTITLE4=Medley
TTITLE5=Big Boat
TTITLE6=High Heel Sneakers
TTITLE7=My Home Is In The Delta
TTITLE8=Wrong Doing Woman
TTITLE9=Diggin' My Potatoes
EXTD=
EXTT0=
EXTT1=
EXTT2=
EXTT3=
EXTT4=
EXTT5=
EXTT6=
EXTT7=
EXTT8=
EXTT9=
PLAYORDER=
